<?xml version="1.0" encoding="UTF-8"?>
<svg version="1.1" xmlns="http://www.w3.org/2000/svg" width="102" height="102">
<path d="M0 0 C3 -0.3125 3 -0.3125 6 0 C8 2 8 2 8.03320312 3.9609375 C7.95005859 4.75757813 7.86691406 5.55421875 7.78125 6.375 C7.24348918 15.27890862 7.04506947 22.37471736 13.06640625 29.4609375 C17.42537822 33.96660565 22.09746926 38.09582141 27 42 C34.55681077 38.46668881 41.7134572 32.16353372 46 25 C47.73376917 18.8347436 47.45044313 12.47540716 46.91918945 6.14379883 C47.01353542 3.64092295 47.74643528 2.14275996 49 0 C51.875 -0.125 51.875 -0.125 55 0 C57 2 57 2 57.22705078 3.97119141 C57.21657715 4.75671387 57.20610352 5.54223633 57.1953125 6.3515625 C57.18886719 7.20234375 57.18242188 8.053125 57.17578125 8.9296875 C57.15064453 10.26386719 57.15064453 10.26386719 57.125 11.625 C57.11597656 12.5221875 57.10695313 13.419375 57.09765625 14.34375 C57.0740497 16.56276586 57.0411231 18.78125077 57 21 C58.25296875 20.96519531 59.5059375 20.93039063 60.796875 20.89453125 C62.44790324 20.86638872 64.09894601 20.83908906 65.75 20.8125 C66.575 20.78736328 67.4 20.76222656 68.25 20.73632812 C74.3618666 20.66239425 74.3618666 20.66239425 77.5546875 22.3515625 C79 24 79 24 79.375 26.5625 C79 29 79 29 77 31 C74.94726562 31.03320312 74.94726562 31.03320312 72.40625 30.78125 C63.28418852 30.25679595 55.76435644 29.91449086 48.47265625 36.06640625 C43.97267425 40.41313809 39.8670177 45.08427467 36 50 C36.37439209 50.43135254 36.74878418 50.86270508 37.13452148 51.30712891 C39.66701579 54.24075115 42.14610953 57.17328299 44.47265625 60.2734375 C48.74802136 65.58024275 52.29123256 69.12845286 59.30859375 69.88671875 C63.81830037 70.12960581 68.30243997 70.0471149 72.80859375 69.75805664 C75.65119175 70.07189517 76.94787498 71.04673437 79 73 C79.375 75.5625 79.375 75.5625 79 78 C77 80 77 80 74.93701172 80.22705078 C74.10959473 80.21657715 73.28217773 80.20610352 72.4296875 80.1953125 C71.53378906 80.18886719 70.63789062 80.18242188 69.71484375 80.17578125 C68.30912109 80.15064453 68.30912109 80.15064453 66.875 80.125 C65.45767578 80.11146484 65.45767578 80.11146484 64.01171875 80.09765625 C61.67422708 80.07404522 59.33723877 80.04111516 57 80 C57.01047363 80.59538574 57.02094727 81.19077148 57.03173828 81.80419922 C57.07323949 84.49442343 57.09930704 87.18458037 57.125 89.875 C57.14175781 90.81214844 57.15851563 91.74929687 57.17578125 92.71484375 C57.18222656 93.61074219 57.18867187 94.50664063 57.1953125 95.4296875 C57.20578613 96.25710449 57.21625977 97.08452148 57.22705078 97.93701172 C57 100 57 100 55 102 C52.5625 102.375 52.5625 102.375 50 102 C48.3125 100.578125 48.3125 100.578125 47 98 C46.95874023 95.99267578 46.95874023 95.99267578 47.12109375 93.6484375 C47.70774438 85.01039889 47.80124942 78.46571553 41.9375 71.61328125 C37.56543941 67.09812549 32.89185686 62.94311542 28 59 C27.56864746 59.37584229 27.13729492 59.75168457 26.69287109 60.13891602 C23.76932212 62.66828308 20.85497108 65.12967524 17.7265625 67.40234375 C13.30828731 70.8741422 9.63451349 74.09078645 8.39648438 79.76708984 C7.76832271 85.79917606 7.81810722 91.80043504 8.12841797 97.85205078 C8 100 8 100 6 102 C2.4375 101.75 2.4375 101.75 -1 101 C-2.17426264 98.65147472 -2.11508173 97.26225935 -2.09765625 94.6484375 C-2.09443359 93.79765625 -2.09121094 92.946875 -2.08789062 92.0703125 C-2.07951172 91.18085937 -2.07113281 90.29140625 -2.0625 89.375 C-2.05798828 88.4778125 -2.05347656 87.580625 -2.04882812 86.65625 C-2.03702591 84.43743352 -2.02056155 82.21874982 -2 80 C-2.56509277 80.01047363 -3.13018555 80.02094727 -3.71240234 80.03173828 C-6.26655653 80.07324788 -8.82063982 80.0993096 -11.375 80.125 C-12.26445312 80.14175781 -13.15390625 80.15851563 -14.0703125 80.17578125 C-14.92109375 80.18222656 -15.771875 80.18867187 -16.6484375 80.1953125 C-17.43395996 80.20578613 -18.21948242 80.21625977 -19.02880859 80.22705078 C-21 80 -21 80 -23 78 C-23.125 74.875 -23.125 74.875 -23 72 C-19.9632138 70.22020014 -18.09649725 69.82730902 -14.61328125 70.18359375 C-6.20317115 70.66825499 0.46983429 70.83557196 7.1640625 65.15625 C11.42219345 61.04376327 15.31858275 56.63344479 19 52 C15.3131353 44.06575263 8.48569819 36.49625206 1 32 C-5.54627288 30.16504303 -12.28826218 30.48038435 -19.00732422 31.06494141 C-21 31 -21 31 -23 29 C-23.3125 26 -23.3125 26 -23 23 C-19.89914429 20.93276286 -19.27068319 20.75502577 -15.76953125 20.8046875 C-14.96708984 20.81113281 -14.16464844 20.81757813 -13.33789062 20.82421875 C-12.50451172 20.84097656 -11.67113281 20.85773437 -10.8125 20.875 C-9.5450293 20.88853516 -9.5450293 20.88853516 -8.25195312 20.90234375 C-6.16784757 20.92589297 -4.08388783 20.96176353 -2 21 C-2.02320312 19.73542969 -2.04640625 18.47085937 -2.0703125 17.16796875 C-2.08907126 15.5078184 -2.10727135 13.84766167 -2.125 12.1875 C-2.14175781 11.35412109 -2.15851562 10.52074219 -2.17578125 9.66210938 C-2.18222656 8.85966797 -2.18867188 8.05722656 -2.1953125 7.23046875 C-2.20578613 6.49207764 -2.21625977 5.75368652 -2.22705078 4.99291992 C-2 3 -2 3 0 0 Z " fill="#FFFFFF" transform="translate(23,0)"/>
<path d="M0 0 C0.99 0.103125 1.98 0.20625 3 0.3125 C5.84799817 4.58449725 5.33018316 8.29048285 5.3125 13.3125 C5.32861328 14.22773437 5.34472656 15.14296875 5.36132812 16.0859375 C5.36197266 16.96507813 5.36261719 17.84421875 5.36328125 18.75 C5.36775269 19.95462891 5.36775269 19.95462891 5.37231445 21.18359375 C4.90808968 23.83804623 4.17532835 24.7528426 2 26.3125 C-3.43478261 25.87771739 -3.43478261 25.87771739 -5 24.3125 C-5.25156269 20.67350825 -5.18522226 17.02166327 -5.1875 13.375 C-5.19974609 12.34697266 -5.21199219 11.31894531 -5.22460938 10.25976562 C-5.22654297 9.27814453 -5.22847656 8.29652344 -5.23046875 7.28515625 C-5.23457764 6.38031494 -5.23868652 5.47547363 -5.24291992 4.54321289 C-4.84282471 0.86917274 -3.54310357 0.36907329 0 0 Z " fill="#FFFFFF" transform="translate(51,67.6875)"/>
<path d="M0 0 C0.99 0.103125 1.98 0.20625 3 0.3125 C5.84799817 4.58449725 5.33018316 8.29048285 5.3125 13.3125 C5.32861328 14.22773438 5.34472656 15.14296875 5.36132812 16.0859375 C5.36197266 16.96507813 5.36261719 17.84421875 5.36328125 18.75 C5.36775269 19.95462891 5.36775269 19.95462891 5.37231445 21.18359375 C4.90808968 23.83804623 4.17532835 24.7528426 2 26.3125 C-3.43478261 25.87771739 -3.43478261 25.87771739 -5 24.3125 C-5.25156269 20.67350825 -5.18522226 17.02166327 -5.1875 13.375 C-5.19974609 12.34697266 -5.21199219 11.31894531 -5.22460938 10.25976562 C-5.22654297 9.27814453 -5.22847656 8.29652344 -5.23046875 7.28515625 C-5.23457764 6.38031494 -5.23868652 5.47547363 -5.24291992 4.54321289 C-4.84282471 0.86917274 -3.54310357 0.36907329 0 0 Z " fill="#FFFFFF" transform="translate(51,7.6875)"/>
<path d="M0 0 C0.97130859 0.00322266 1.94261719 0.00644531 2.94335938 0.00976562 C3.91080078 -0.00634766 4.87824219 -0.02246094 5.875 -0.0390625 C6.80376953 -0.03970703 7.73253906 -0.04035156 8.68945312 -0.04101562 C9.54079834 -0.04399658 10.39214355 -0.04697754 11.26928711 -0.05004883 C13.50585938 0.32226562 13.50585938 0.32226562 15.31860352 1.6496582 C16.50585938 3.32226562 16.50585938 3.32226562 16.31835938 6.44726562 C16.05023438 7.39601563 15.78210938 8.34476563 15.50585938 9.32226562 C11.86687986 11.14175538 7.57426649 10.50697016 3.56835938 10.50976562 C2.64861328 10.52201172 1.72886719 10.53425781 0.78125 10.546875 C-0.10240234 10.54880859 -0.98605469 10.55074219 -1.89648438 10.55273438 C-2.70593506 10.55684326 -3.51538574 10.56095215 -4.34936523 10.56518555 C-6.49414062 10.32226562 -6.49414062 10.32226562 -9.49414062 8.32226562 C-9.80664062 5.32226562 -9.80664062 5.32226562 -9.49414062 2.32226562 C-6.5626773 -0.6091977 -4.00973316 0.03065119 0 0 Z " fill="#FFFFFF" transform="translate(77.494140625,45.677734375)"/>
<path d="M0 0 C0.97130859 0.00322266 1.94261719 0.00644531 2.94335938 0.00976562 C3.91080078 -0.00634766 4.87824219 -0.02246094 5.875 -0.0390625 C6.80376953 -0.03970703 7.73253906 -0.04035156 8.68945312 -0.04101562 C9.54079834 -0.04399658 10.39214355 -0.04697754 11.26928711 -0.05004883 C13.50585938 0.32226562 13.50585938 0.32226562 15.31860352 1.6496582 C16.50585938 3.32226562 16.50585938 3.32226562 16.31835938 6.44726562 C16.05023438 7.39601563 15.78210938 8.34476563 15.50585938 9.32226562 C11.86687986 11.14175538 7.57426649 10.50697016 3.56835938 10.50976562 C2.64861328 10.52201172 1.72886719 10.53425781 0.78125 10.546875 C-0.10240234 10.54880859 -0.98605469 10.55074219 -1.89648438 10.55273438 C-2.70593506 10.55684326 -3.51538574 10.56095215 -4.34936523 10.56518555 C-6.49414062 10.32226562 -6.49414062 10.32226562 -9.49414062 8.32226562 C-9.80664062 5.32226562 -9.80664062 5.32226562 -9.49414062 2.32226562 C-6.5626773 -0.6091977 -4.00973316 0.03065119 0 0 Z " fill="#FFFFFF" transform="translate(17.494140625,45.677734375)"/>
</svg>
