<?xml version="1.0" encoding="UTF-8"?>
<svg version="1.1" xmlns="http://www.w3.org/2000/svg" width="110" height="110">
<path d="M0 0 C4.6293264 0.79549284 6.56441965 3.18150266 9.6484375 6.5625 C10.19371094 7.13484375 10.73898438 7.7071875 11.30078125 8.296875 C12.63902762 9.70555539 13.95818725 11.13232497 15.2734375 12.5625 C18.82815713 9.57805303 22.2310438 6.64653277 25.3359375 3.1875 C28.2734375 0.5625 28.2734375 0.5625 31.5234375 0.0625 C34.2734375 0.5625 34.2734375 0.5625 36.2734375 2.5625 C36.83203125 4.84375 36.83203125 4.84375 36.2734375 7.5625 C34.65865891 8.91266326 33.03274769 10.25254082 31.34423828 11.50927734 C26.41337514 15.32281385 22.87662672 18.79920468 21.51220703 25.04980469 C20.65586402 33.54481289 20.81830601 42.04455218 21.2734375 50.5625 C38.02019261 52.1623099 38.02019261 52.1623099 53.0078125 46.4140625 C55.99482534 43.4997006 58.47504579 40.26490718 60.99243164 36.94702148 C62.2734375 35.5625 62.2734375 35.5625 64.98046875 34.53515625 C67.95069312 34.5705763 69.13215506 35.57983107 71.2734375 37.5625 C70.95001255 43.15194656 68.67323272 45.79673935 64.7109375 49.4375 C64.19080078 49.93507812 63.67066406 50.43265625 63.13476562 50.9453125 C61.85875961 52.16278612 60.56756806 53.36430992 59.2734375 54.5625 C61.26057103 59.53607699 65.36726828 62.51034407 69.25390625 66.02734375 C71.2734375 68.5625 71.2734375 68.5625 71.19921875 71.25390625 C70.2734375 73.5625 70.2734375 73.5625 68.2734375 75.5625 C65.46875 75.59375 65.46875 75.59375 62.2734375 74.5625 C60.99226526 73.03982883 59.71890081 71.50699839 58.54370117 69.90112305 C55.01591336 65.25234439 51.78556717 62.09653429 45.93603516 60.85302734 C37.72806592 60.03469721 29.50451451 60.16382447 21.2734375 60.5625 C19.6047414 77.86533837 19.6047414 77.86533837 25.45703125 93.36328125 C27.88044677 95.83417797 30.48444844 97.91794679 33.24609375 99.99609375 C36.2734375 102.5625 36.2734375 102.5625 36.78125 105.29296875 C36.2734375 107.5625 36.2734375 107.5625 35.0859375 109.4375 C33.2734375 110.5625 33.2734375 110.5625 31.0234375 110.48046875 C27.276513 109.22971981 25.09293263 106.81472377 22.4609375 104 C21.95884766 103.47986328 21.45675781 102.95972656 20.93945312 102.42382812 C19.70814623 101.1456143 18.4894968 99.85522853 17.2734375 98.5625 C12.65470004 100.47911895 9.9172476 103.94966293 6.58984375 107.56640625 C4.04163579 109.76224818 2.60604207 110.37490305 -0.7265625 110.5625 C-3.0390625 109.125 -3.0390625 109.125 -4.7265625 107.5625 C-4.656376 104.59273378 -4.52582656 102.35808473 -2.34765625 100.18994141 C-1.13502062 99.26859604 0.07771436 98.34738143 1.29052734 97.42626953 C6.03652017 93.7133862 9.64182586 90.3053245 11.03027344 84.27587891 C11.88142171 76.38312371 11.730834 68.4787143 11.2734375 60.5625 C-6.59578458 58.90881267 -6.59578458 58.90881267 -22.59375 64.74609375 C-25.06497601 67.16493949 -27.13366346 69.76519315 -29.1953125 72.53515625 C-31.7265625 75.5625 -31.7265625 75.5625 -34.4453125 76.12109375 C-36.7265625 75.5625 -36.7265625 75.5625 -38.7265625 73.5625 C-39.2265625 70.8359375 -39.2265625 70.8359375 -38.7265625 67.5625 C-37.01303894 65.12368328 -34.92243344 63.19049038 -32.7265625 61.1875 C-32.15421875 60.64222656 -31.581875 60.09695312 -30.9921875 59.53515625 C-29.58350711 58.19690988 -28.15673753 56.87775025 -26.7265625 55.5625 C-29.71100947 52.00778037 -32.64252973 48.6048937 -36.1015625 45.5 C-38.7265625 42.5625 -38.7265625 42.5625 -39.2890625 39.3125 C-38.7265625 36.5625 -38.7265625 36.5625 -35.7265625 34.5625 C-33.38671875 34.5 -33.38671875 34.5 -30.7265625 35.5625 C-29.46435547 36.94921875 -29.46435547 36.94921875 -28.16015625 38.6875 C-24.02092035 44.15987773 -20.29213446 48.76626941 -13.33740234 50.31933594 C-5.14558568 51.17355996 3.05879542 51.01858431 11.2734375 50.5625 C12.93267193 33.27476266 12.93267193 33.27476266 7.125 17.76171875 C4.21840422 14.77662752 0.98557654 12.31970636 -2.33984375 9.82470703 C-3.7265625 8.5625 -3.7265625 8.5625 -4.7890625 5.90234375 C-4.68948315 2.17434188 -3.64095117 0.75114179 0 0 Z " fill="#FFFFFF" transform="translate(38.7265625,-0.5625)"/>
<path d="M0 0 C2.36514929 1.67575113 4.31369807 3.65909885 6.3125 5.75 C7.1178418 6.53890625 7.1178418 6.53890625 7.93945312 7.34375 C10.90201467 10.36234991 12.95486638 12.65965039 13 17 C11.0625 19.3125 11.0625 19.3125 9 21 C3.91228057 19.70357372 0.79053796 17.43705942 -2.8125 13.75 C-3.30169922 13.28464844 -3.79089844 12.81929687 -4.29492188 12.33984375 C-7.55206541 9.0691851 -8.81715809 6.61675814 -9 2 C-6.7840155 -2.04091291 -4.0008702 -1.13151102 0 0 Z " fill="#FFFFFF" transform="translate(74,66)"/>
<path d="M0 0 C4.99475872 0.08384487 7.89067155 1.12946715 11.4765625 4.65625 C12.16878906 5.38328125 12.16878906 5.38328125 12.875 6.125 C13.3596875 6.58648438 13.844375 7.04796875 14.34375 7.5234375 C17.87053285 11.10932845 18.91615513 14.00524128 19 19 C18.34 19.66 17.68 20.32 17 21 C11.6157748 20.96736833 8.81726691 19.58245206 5.11914062 15.93945312 C4.34860352 15.13411133 4.34860352 15.13411133 3.5625 14.3125 C3.02173828 13.79494141 2.48097656 13.27738281 1.92382812 12.74414062 C-0.67575982 10.10511519 -1.93738889 8.4331033 -2.47265625 4.73046875 C-2 2 -2 2 0 0 Z " fill="#FFFFFF" transform="translate(25,23)"/>
<path d="M0 0 C2.6015625 0.97265625 2.6015625 0.97265625 3.6015625 1.97265625 C4.12031599 4.9912649 4.21511658 7.07534634 2.44335938 9.66650391 C0.81469246 11.45937586 -0.88275118 13.12722595 -2.6484375 14.78515625 C-3.23496094 15.36974609 -3.82148437 15.95433594 -4.42578125 16.55664062 C-9.44123928 21.41994431 -9.44123928 21.41994431 -13.3984375 21.97265625 C-15.6484375 21.03515625 -15.6484375 21.03515625 -17.3984375 19.97265625 C-17.89946097 16.90506917 -17.94160171 14.78740257 -16.18261719 12.14892578 C-14.45554918 10.18522368 -12.64967449 8.35665393 -10.7734375 6.53515625 C-10.15597656 5.88611328 -9.53851562 5.23707031 -8.90234375 4.56835938 C-4.26549804 -0.0343201 -4.26549804 -0.0343201 0 0 Z " fill="#FFFFFF" transform="translate(40.3984375,65.02734375)"/>
<path d="M0 0 C1.0003125 0.30035156 2.000625 0.60070312 3.03125 0.91015625 C3.71875 3.16796875 3.71875 3.16796875 4.03125 5.91015625 C2.84375 7.90234375 2.84375 7.90234375 1.03125 9.78515625 C0.3815625 10.46191406 -0.268125 11.13867188 -0.9375 11.8359375 C-1.6078125 12.52042969 -2.278125 13.20492187 -2.96875 13.91015625 C-3.85046875 14.95236328 -3.85046875 14.95236328 -4.75 16.015625 C-6.40925061 17.90490808 -7.88963194 19.49361428 -9.96875 20.91015625 C-13.90625 20.84765625 -13.90625 20.84765625 -16.96875 19.91015625 C-17.875 17.375 -17.875 17.375 -17.96875 13.91015625 C-16.20293189 11.02758168 -13.8913455 8.81046091 -11.46875 6.47265625 C-10.85515625 5.82361328 -10.2415625 5.17457031 -9.609375 4.50585938 C-4.94744353 -0.11199921 -4.94744353 -0.11199921 0 0 Z " fill="#FFFFFF" transform="translate(82.96875,23.08984375)"/>
</svg>
